# xmcd CD database file
#
# Track frame offsets:
#	150
#	13466
#	25811
#	38446
#	50836
#	63983
#	74630
#	89129
#	100827
#	113588
#	125885
#	138826
#	151952
#	165751
#	179701
#	191308
#	204710
#	217414
#	238049
#	250620
#	267864
#	285479
#	299241
#	312884
#	324988
#
# Disc length: 4514 seconds
#
# Revision: 0
# Processed by: cddbd v1.5.2PL0 Copyright (c) Steve Scherf et al.
# Submitted via: CDex 1.77
#
DISCID=7f11a019
DTITLE=Cab Calloway - BD Jazz
DYEAR=2010
DGENRE=Jazz
TTITLE0=Utt-Da-Zay
TTITLE1=Pluckin' the Bass
TTITLE2=Pickin' the Cabbage
TTITLE3=Calling All Bars
TTITLE4=Come On With the Come On
TTITLE5=Limehouse Blues
TTITLE6=Hard Times
TTITLE7=Papa's in Bed with his Britches On
TTITLE8=Boo-Wha Boo-Wha
TTITLE9=Cupid's Nightmare
TTITLE10=Are You Hep to the Jive?
TTITLE11=Hot Air
TTITLE12=Lonesome Nights
TTITLE13=Hep Cat's Love Song
TTITLE14=Jonah Joins the Cab
TTITLE15=Special Delivery
TTITLE16=St. James Infirmary
TTITLE17=The Jumpin' Jive
TTITLE18=105 in the Shade
TTITLE19=Cruisin' with Cab
TTITLE20=Russian Lullaby
TTITLE21=The Honeydripper
TTITLE22=Hey Now, Hey Now
TTITLE23=I Beeped When I Shoulda Bopped
TTITLE24=It Ain't Necessarily So
EXTD=YEAR: 2010
EXTT0=
EXTT1=
EXTT2=
EXTT3=
EXTT4=
EXTT5=
EXTT6=
EXTT7=
EXTT8=
EXTT9=
EXTT10=
EXTT11=
EXTT12=
EXTT13=
EXTT14=
EXTT15=
EXTT16=
EXTT17=
EXTT18=
EXTT19=
EXTT20=
EXTT21=
EXTT22=
EXTT23=
EXTT24=
PLAYORDER=
